<?xml version="1.0" encoding="UTF-8" standalone="no" ?>
<!DOCTYPE svg PUBLIC "-//W3C//DTD SVG 1.1//EN" "http://www.w3.org/Graphics/SVG/1.1/DTD/svg11.dtd">
<svg xmlns="http://www.w3.org/2000/svg" xmlns:xlink="http://www.w3.org/1999/xlink" version="1.1" width="1280" height="1024" viewBox="0 0 1280 1024" xml:space="preserve">
<desc>Created with Fabric.js 5.3.0</desc>
<defs>
</defs>
<g transform="matrix(1 0 0 1 640 512)" id="background-logo"  >
<rect style="stroke: none; stroke-width: 0; stroke-dasharray: none; stroke-linecap: butt; stroke-dashoffset: 0; stroke-linejoin: miter; stroke-miterlimit: 4; fill: rgb(255,255,255); fill-opacity: 0; fill-rule: nonzero; opacity: 1;"  paint-order="stroke"  x="-640" y="-512" rx="0" ry="0" width="1280" height="1024" />
</g>
<g transform="matrix(4.2226558297267 0 0 4.2226558297267 638.0669504643963 511.22678018575857)" id="shape-7f0a4ec2-21f2-436f-a8e6-0fda21c3fff8"  >
<g style=""  paint-order="stroke"   >
		<g transform="matrix(1 0 0 1 0 0)" id="path-24"  >
<path style="stroke: none; stroke-width: 0; stroke-dasharray: none; stroke-linecap: butt; stroke-dashoffset: 0; stroke-linejoin: miter; stroke-miterlimit: 4; fill: rgb(67,45,215); fill-rule: nonzero; opacity: 1;"  paint-order="stroke"  transform=" translate(-112.280121, -113.40567)" d="M 224.560242 130.718811 L 224.560242 99.198242 C 224.560242 83.806946 212.083191 71.329895 196.691834 71.329895 L 108.24762 71.329895 C 92.856385 71.329895 80.379334 83.806946 80.379334 99.198242 L 80.379334 130.718811 C 80.379334 146.11004599999998 92.856385 158.587097 108.24762 158.587097 L 196.691834 158.587097 C 212.083191 158.587097 224.560242 146.110046 224.560242 130.718811 Z M 129.05124 126.289183 C 123.93611800000001 126.289183 119.789331 122.14247499999999 119.789331 117.02727399999999 C 119.789331 111.91215199999999 123.93611800000001 107.76544399999999 129.05124 107.76544399999999 C 134.166362 107.76544399999999 138.312991 111.91215199999999 138.312991 117.02727399999999 C 138.312991 122.14247499999999 134.16636200000002 126.289183 129.05124 126.289183 Z M 154.691386 126.289183 C 149.57610599999998 126.289183 145.429477 122.14247499999999 145.429477 117.02727399999999 C 145.429477 111.91215199999999 149.57610599999998 107.76544399999999 154.691386 107.76544399999999 C 159.806666 107.76544399999999 163.953295 111.91215199999999 163.953295 117.02727399999999 C 163.953295 122.14247499999999 159.806666 126.289183 154.691386 126.289183 Z M 180.331532 126.289183 C 175.21641 126.289183 171.069623 122.14247499999999 171.069623 117.02727399999999 C 171.069623 111.91215199999999 175.21641 107.76544399999999 180.331532 107.76544399999999 C 185.44665400000002 107.76544399999999 189.593283 111.91215199999999 189.593283 117.02727399999999 C 189.593283 122.14247499999999 185.44665400000002 126.289183 180.331532 126.289183 Z M 173.809875 209.394958 C 156.320251 220.424011 135.61029000000002 226.81134 113.4057 226.81134 C 50.773499 226.81134 0 176.037903 0 113.405701 C 0 50.77349899999999 50.773499 0 113.405701 0 C 163.269471 0 205.615662 32.182678 220.80926499999998 76.909546 C 213.823547 69.269226 203.77618399999997 64.47528100000001 192.60772699999998 64.47528100000001 L 102.74139399999999 64.47528100000001 C 36.79681399999998 64.47528100000001 26.68994099999999 42.32128900000001 26.68994099999999 42.32128900000001 C 26.68994099999999 42.32128900000001 26.13445999999999 65.08068800000001 81.84490899999999 70.70233100000002 C 71.42474299999999 77.52551200000002 64.53582699999998 89.29547100000002 64.53582699999998 102.68078600000001 L 64.53582699999998 112.88763400000002 C 12.213501 109.807861 3.698547 91.165833 3.698547 91.165833 C 3.698547 91.165833 6.079223 116.606324 64.535827 120.48468100000001 L 64.535827 133.62994500000002 C 64.535827 145.661683 70.102722 156.38800200000003 78.79534799999999 163.39111400000002 C 29.82562099999999 159.027589 6.664793999999986 142.826905 6.664793999999986 142.826905 C 6.664793999999986 142.826905 24.075499999999987 173.171387 102.74139299999999 171.835511 L 147.67449799999997 171.83557199999998 C 208.91131399999998 171.832093 187.14642199999997 200.763062 173.80987399999998 209.39495899999997 Z" stroke-linecap="round" />
</g>
</g>
</g>
</svg>